<svg width="24" height="24" fill="none" xmlns="http://www.w3.org/2000/svg"><g clip-path="url(#a)"><path fill-rule="evenodd" clip-rule="evenodd" d="m22.196 10.12-.03-.082-2.617-6.825L17.89 8.29l-.338 1.034H6.448L6.11 8.29 4.452 3.213l-2.617 6.831-.004.01-.004.01-.03.074a4.564 4.564 0 0 0 1.519 5.266l.009.007.01.007.01.01.018.012 4.958 3.716.005.004 2.465 1.862 1.204.91 1.203-.91 2.466-1.862.005-.005 4.994-3.737.003-.002.008-.007.01-.007a4.565 4.565 0 0 0 1.515-5.274l-.003-.009Zm-.623 6.491-5.005 3.745-2.465 1.863-1.498 1.133a1.012 1.012 0 0 1-1.22 0L9.887 22.22l-2.465-1.863-4.97-3.724-.027-.02-.012-.01A6.064 6.064 0 0 1 .4 9.591l.034-.084L3.7.985a.864.864 0 0 1 1.632.088l2.205 6.75h8.929l2.205-6.75A.862.862 0 0 1 20.3.985l3.267 8.521.032.086a6.065 6.065 0 0 1-2.014 7.008l-.013.01v.001Z" fill="#000"/></g><defs><clipPath id="a"><path fill="#fff" d="M0 0h24v24H0z"/></clipPath></defs></svg>
